<svg id="Component_33_1" data-name="Component 33 – 1" xmlns="http://www.w3.org/2000/svg" xmlns:xlink="http://www.w3.org/1999/xlink" width="22.165" height="18.002" viewBox="0 0 22.165 18.002">
  <defs>
    <clipPath id="clip-path">
      <path id="Icon_awesome-twitter" data-name="Icon awesome-twitter" d="M19.887,7.867c.014.2.014.394.014.591A12.836,12.836,0,0,1,6.976,21.383,12.837,12.837,0,0,1,0,19.344a9.4,9.4,0,0,0,1.1.056,9.1,9.1,0,0,0,5.64-1.941,4.551,4.551,0,0,1-4.247-3.15,5.728,5.728,0,0,0,.858.07,4.8,4.8,0,0,0,1.2-.155A4.543,4.543,0,0,1,.9,9.766V9.71a4.575,4.575,0,0,0,2.053.577A4.55,4.55,0,0,1,1.547,4.211a12.913,12.913,0,0,0,9.367,4.754A5.128,5.128,0,0,1,10.8,7.924a4.547,4.547,0,0,1,7.862-3.108,8.944,8.944,0,0,0,2.883-1.1,4.53,4.53,0,0,1-2,2.5,9.107,9.107,0,0,0,2.616-.7,9.765,9.765,0,0,1-2.278,2.349Z" transform="translate(0 -3.381)" fill="#fff" opacity="0.2"/>
    </clipPath>
  </defs>
  <g id="Mask_Group_17" data-name="Mask Group 17" transform="translate(0 0)" clip-path="url(#clip-path)">
    <circle id="Ellipse_27" data-name="Ellipse 27" cx="15" cy="15" r="15" transform="translate(-24.165 16.492)" fill="#1da1f2"/>
  </g>
  <path id="Icon_awesome-twitter-2" data-name="Icon awesome-twitter" d="M19.887,7.867c.014.2.014.394.014.591A12.836,12.836,0,0,1,6.976,21.383,12.837,12.837,0,0,1,0,19.344a9.4,9.4,0,0,0,1.1.056,9.1,9.1,0,0,0,5.64-1.941,4.551,4.551,0,0,1-4.247-3.15,5.728,5.728,0,0,0,.858.07,4.8,4.8,0,0,0,1.2-.155A4.543,4.543,0,0,1,.9,9.766V9.71a4.575,4.575,0,0,0,2.053.577A4.55,4.55,0,0,1,1.547,4.211a12.913,12.913,0,0,0,9.367,4.754A5.128,5.128,0,0,1,10.8,7.924a4.547,4.547,0,0,1,7.862-3.108,8.944,8.944,0,0,0,2.883-1.1,4.53,4.53,0,0,1-2,2.5,9.107,9.107,0,0,0,2.616-.7,9.765,9.765,0,0,1-2.278,2.349Z" transform="translate(0 -3.381)" fill="#fff" opacity="0.2"/>
</svg>
