<svg xmlns="http://www.w3.org/2000/svg" width="278" height="559.088" viewBox="0 0 278 559.088">
  <g id="Group_520" data-name="Group 520" transform="translate(5997 -245.467) rotate(90)">
    <path id="Path_1625" data-name="Path 1625" d="M0,0H534.967" transform="translate(258.5 5864.239)" fill="none" stroke="#ff8bd7" stroke-width="4"/>
    <g id="Group_522" data-name="Group 522" transform="translate(247.467 5850)">
      <g id="Group_485" data-name="Group 485" transform="translate(0 28) rotate(-90)">
        <g id="Ellipse_28" data-name="Ellipse 28" fill="#fff" stroke="#ffcfef" stroke-width="2">
          <circle cx="14" cy="14" r="14" stroke="none"/>
          <circle cx="14" cy="14" r="15" fill="none"/>
        </g>
        <g id="Icon_ionic-md-rocket" data-name="Icon ionic-md-rocket" transform="translate(9.57 6.617)">
          <path id="Path_1619" data-name="Path 1619" d="M1.656.356A3.312,3.312,0,0,1,.336.021.239.239,0,0,0,0,.255L.108,1.824A.12.12,0,0,0,.3,1.91l.446-.338A.122.122,0,0,1,.923,1.6l.631.987a.121.121,0,0,0,.2,0L2.388,1.6a.122.122,0,0,1,.175-.031l.446.338A.12.12,0,0,0,3.2,1.824L3.311.255A.238.238,0,0,0,2.975.021,3.327,3.327,0,0,1,1.656.356Z" transform="translate(2.771 12.121)" fill="#ffcfef"/>
          <path id="Path_1620" data-name="Path 1620" d="M8.786,8.524,7.309,7.014C7.309,2.153,4.442,0,4.442,0S1.547,2.153,1.547,7.014L.071,8.524A.256.256,0,0,0,0,8.743l.566,3.439a.235.235,0,0,0,.363.166L3,10.951a2.348,2.348,0,0,0,1.449.615,2.221,2.221,0,0,0,1.418-.615l2.064,1.4a.237.237,0,0,0,.363-.166L8.86,8.74A.273.273,0,0,0,8.786,8.524ZM4.442,5.414a.985.985,0,1,1,.944-.984A.964.964,0,0,1,4.442,5.414Z" fill="#ff8bd7"/>
        </g>
      </g>
      <g id="Group_441" data-name="Group 441" transform="translate(0 146) rotate(-90)">
        <text id="Q1" transform="translate(68 26)" font-size="27" font-family="Montserrat-Bold, Montserrat" font-weight="700" letter-spacing="-0.04em"><tspan x="0" y="0">Q1</tspan></text>
        <text id="Token_Generation_Event_POLR_Distribution_Marketing_Development" data-name="Token Generation Event
$POLR Distribution
Marketing
Development" transform="translate(108 54)" font-size="9" font-family="Montserrat-Regular, Montserrat"><tspan x="-108.216" y="0">Token Generation Event</tspan><tspan x="-87.552" y="18">$POLR Distribution</tspan><tspan x="-46.458" y="36">Marketing</tspan><tspan x="-61.875" y="54">Development</tspan></text>
      </g>
    </g>
    <g id="Group_536" data-name="Group 536" transform="translate(576.951 5850)">
      <g id="Group_485-2" data-name="Group 485" transform="translate(0 28) rotate(-90)">
        <g id="Ellipse_28-2" data-name="Ellipse 28" fill="#fff" stroke="#ffcfef" stroke-width="2">
          <circle cx="14" cy="14" r="14" stroke="none"/>
          <circle cx="14" cy="14" r="15" fill="none"/>
        </g>
        <g id="Icon_ionic-md-rocket-2" data-name="Icon ionic-md-rocket" transform="translate(9.57 6.829)">
          <path id="Path_1619-2" data-name="Path 1619" d="M1.656.356A3.312,3.312,0,0,1,.336.021.239.239,0,0,0,0,.255L.108,1.824A.12.12,0,0,0,.3,1.91l.446-.338A.122.122,0,0,1,.923,1.6l.631.987a.121.121,0,0,0,.2,0L2.388,1.6a.122.122,0,0,1,.175-.031l.446.338A.12.12,0,0,0,3.2,1.824L3.311.255A.238.238,0,0,0,2.975.021,3.327,3.327,0,0,1,1.656.356Z" transform="translate(2.771 12.121)" fill="#ffcfef"/>
          <path id="Path_1620-2" data-name="Path 1620" d="M8.786,8.524,7.309,7.014C7.309,2.153,4.442,0,4.442,0S1.547,2.153,1.547,7.014L.071,8.524A.256.256,0,0,0,0,8.743l.566,3.439a.235.235,0,0,0,.363.166L3,10.951a2.348,2.348,0,0,0,1.449.615,2.221,2.221,0,0,0,1.418-.615l2.064,1.4a.237.237,0,0,0,.363-.166L8.86,8.74A.273.273,0,0,0,8.786,8.524ZM4.442,5.414a.985.985,0,1,1,.944-.984A.964.964,0,0,1,4.442,5.414Z" fill="#ff8bd7"/>
        </g>
      </g>
      <g id="Group_441-2" data-name="Group 441" transform="translate(0 146) rotate(-90)">
        <text id="Q1-2" data-name="Q1" transform="translate(68 26)" font-size="27" font-family="Montserrat-Bold, Montserrat" font-weight="700" letter-spacing="-0.04em"><tspan x="0" y="0">Q1</tspan></text>
        <text id="Token_Generation_Event_POLR_Distribution_Marketing_Development-2" data-name="Token Generation Event
$POLR Distribution
Marketing
Development" transform="translate(108 54)" font-size="9" font-family="Montserrat-Regular, Montserrat"><tspan x="-108.216" y="0">Token Generation Event</tspan><tspan x="-87.552" y="18">$POLR Distribution</tspan><tspan x="-46.458" y="36">Marketing</tspan><tspan x="-61.875" y="54">Development</tspan></text>
      </g>
    </g>
    <g id="Group_521" data-name="Group 521" transform="translate(361.749 5720)">
      <g id="Point" transform="translate(69 136)">
        <circle id="Ellipse_17" data-name="Ellipse 17" cx="6.5" cy="6.5" r="6.5" transform="translate(2 2)" fill="#40aeee" opacity="0.4"/>
        <circle id="Ellipse_18" data-name="Ellipse 18" cx="8.5" cy="8.5" r="8.5" fill="#112d3f"/>
        <circle id="Ellipse_16" data-name="Ellipse 16" cx="6.5" cy="6.5" r="6.5" transform="translate(2 2)" fill="#40aeee"/>
      </g>
      <g id="Group_442" data-name="Group 442" transform="translate(0 119) rotate(-90)">
        <text id="Q2" transform="translate(0 85)" fill="#1a1a1a" font-size="27" font-family="Montserrat-Bold, Montserrat" font-weight="700" letter-spacing="-0.04em"><tspan x="0" y="0">Q2</tspan></text>
        <text id="Project_IDOs_Collaboration_Anti-scam_features_Private_Pools" data-name="Project IDOs Collaboration
Anti-scam features
Private Pools" transform="translate(0 9)" fill="#1a1a1a" font-size="9" font-family="Montserrat-Regular, Montserrat"><tspan x="0" y="0">Project IDOs Collaboration</tspan><tspan x="0" y="18">Anti-scam features</tspan><tspan x="0" y="36">Private Pools</tspan></text>
      </g>
      <g id="Point-2" data-name="Point" transform="translate(63.467 130.5)">
        <g id="Ellipse_28-3" data-name="Ellipse 28" transform="translate(0 28) rotate(-90)" fill="#fff" stroke="#ffcfef" stroke-width="2">
          <circle cx="14" cy="14" r="14" stroke="none"/>
          <circle cx="14" cy="14" r="15" fill="none"/>
        </g>
        <g id="Icon_ionic-md-rocket-3" data-name="Icon ionic-md-rocket" transform="translate(6.617 18.43) rotate(-90)">
          <path id="Path_1619-3" data-name="Path 1619" d="M1.656.356A3.312,3.312,0,0,1,.336.021.239.239,0,0,0,0,.255L.108,1.824A.12.12,0,0,0,.3,1.91l.446-.338A.122.122,0,0,1,.923,1.6l.631.987a.121.121,0,0,0,.2,0L2.388,1.6a.122.122,0,0,1,.175-.031l.446.338A.12.12,0,0,0,3.2,1.824L3.311.255A.238.238,0,0,0,2.975.021,3.327,3.327,0,0,1,1.656.356Z" transform="translate(2.771 12.121)" fill="#ffcfef"/>
          <path id="Path_1620-3" data-name="Path 1620" d="M8.786,8.524,7.309,7.014C7.309,2.153,4.442,0,4.442,0S1.547,2.153,1.547,7.014L.071,8.524A.256.256,0,0,0,0,8.743l.566,3.439a.235.235,0,0,0,.363.166L3,10.951a2.348,2.348,0,0,0,1.449.615,2.221,2.221,0,0,0,1.418-.615l2.064,1.4a.237.237,0,0,0,.363-.166L8.86,8.74A.273.273,0,0,0,8.786,8.524ZM4.442,5.414a.985.985,0,1,1,.944-.984A.964.964,0,0,1,4.442,5.414Z" fill="#ff8bd7"/>
        </g>
      </g>
    </g>
    <g id="Group_535" data-name="Group 535" transform="translate(691.477 5720)">
      <g id="Point-3" data-name="Point" transform="translate(69 136)">
        <circle id="Ellipse_17-2" data-name="Ellipse 17" cx="6.5" cy="6.5" r="6.5" transform="translate(2 2)" fill="#40aeee" opacity="0.4"/>
        <circle id="Ellipse_18-2" data-name="Ellipse 18" cx="8.5" cy="8.5" r="8.5" fill="#112d3f"/>
        <circle id="Ellipse_16-2" data-name="Ellipse 16" cx="6.5" cy="6.5" r="6.5" transform="translate(2 2)" fill="#40aeee"/>
      </g>
      <g id="Group_442-2" data-name="Group 442" transform="translate(0 119) rotate(-90)">
        <text id="Q2-2" data-name="Q2" transform="translate(0 85)" fill="#1a1a1a" font-size="27" font-family="Montserrat-Bold, Montserrat" font-weight="700" letter-spacing="-0.04em"><tspan x="0" y="0">Q2</tspan></text>
        <text id="Project_IDOs_Collaboration_Anti-scam_features_Private_Pools-2" data-name="Project IDOs Collaboration
Anti-scam features
Private Pools" transform="translate(0 9)" fill="#1a1a1a" font-size="9" font-family="Montserrat-Regular, Montserrat"><tspan x="0" y="0">Project IDOs Collaboration</tspan><tspan x="0" y="18">Anti-scam features</tspan><tspan x="0" y="36">Private Pools</tspan></text>
      </g>
      <g id="Point-4" data-name="Point" transform="translate(63.467 130.5)">
        <g id="Ellipse_28-4" data-name="Ellipse 28" transform="translate(0 28) rotate(-90)" fill="#fff" stroke="#ffcfef" stroke-width="2">
          <circle cx="14" cy="14" r="14" stroke="none"/>
          <circle cx="14" cy="14" r="15" fill="none"/>
        </g>
        <g id="Icon_ionic-md-rocket-4" data-name="Icon ionic-md-rocket" transform="translate(6.617 18.43) rotate(-90)">
          <path id="Path_1619-4" data-name="Path 1619" d="M1.656.356A3.312,3.312,0,0,1,.336.021.239.239,0,0,0,0,.255L.108,1.824A.12.12,0,0,0,.3,1.91l.446-.338A.122.122,0,0,1,.923,1.6l.631.987a.121.121,0,0,0,.2,0L2.388,1.6a.122.122,0,0,1,.175-.031l.446.338A.12.12,0,0,0,3.2,1.824L3.311.255A.238.238,0,0,0,2.975.021,3.327,3.327,0,0,1,1.656.356Z" transform="translate(2.771 12.121)" fill="#ffcfef"/>
          <path id="Path_1620-4" data-name="Path 1620" d="M8.786,8.524,7.309,7.014C7.309,2.153,4.442,0,4.442,0S1.547,2.153,1.547,7.014L.071,8.524A.256.256,0,0,0,0,8.743l.566,3.439a.235.235,0,0,0,.363.166L3,10.951a2.348,2.348,0,0,0,1.449.615,2.221,2.221,0,0,0,1.418-.615l2.064,1.4a.237.237,0,0,0,.363-.166L8.86,8.74A.273.273,0,0,0,8.786,8.524ZM4.442,5.414a.985.985,0,1,1,.944-.984A.964.964,0,0,1,4.442,5.414Z" fill="#ff8bd7"/>
        </g>
      </g>
    </g>
  </g>
</svg>
