<svg xmlns="http://www.w3.org/2000/svg" width="16.091" height="18.533" viewBox="0 0 16.091 18.533">
  <path id="Icon_metro-fire" data-name="Icon metro-fire" d="M9.231,20.461a4.721,4.721,0,0,1,.372-5.43,8.651,8.651,0,0,0,1.308-3.024,3.553,3.553,0,0,1,.49,2.724,6.875,6.875,0,0,0,1.5-5.148,8.89,8.89,0,0,1,2.779,10.879c10-5.656,2.487-14.12,1.179-15.074.436.953.518,2.567-.362,3.351-1.49-5.652-5.176-6.81-5.176-6.81.436,2.915-1.58,6.1-3.524,8.483a6.3,6.3,0,0,0-.752-3.076c-.137,2.111-1.751,3.832-2.188,5.948C4.264,16.148,5.3,18.245,9.231,20.461Z" transform="translate(-4.701 -1.928)" fill="#fff"/>
</svg>
