<svg xmlns="http://www.w3.org/2000/svg" width="16.091" height="15.751" viewBox="0 0 16.091 15.751">
  <path id="Icon_metro-tools" data-name="Icon metro-tools" d="M20.987,8.264a4.006,4.006,0,0,1-5.679,5.026L14.2,14.5l.791.794.473-.473a.618.618,0,0,1,.875,0l3.832,3.871a.618.618,0,0,1,0,.875l-1.749,1.749a.618.618,0,0,1-.875,0l-3.832-3.871a.618.618,0,0,1,0-.875l.432-.432-.754-.755-5.3,5.79a1.236,1.236,0,0,1-1.749,0l-.437-.437a1.236,1.236,0,0,1,0-1.749l6.037-5.056-4.01-4.02H6.668L5.2,7.554,6.382,6.372l2.41,1.475.016,1.24,4.056,4.072,1.18-.988A4.01,4.01,0,0,1,18.8,6.082L16.2,8.645l2.187,2.187,2.6-2.567ZM7.357,19.6a.619.619,0,1,0,0,.875A.619.619,0,0,0,7.357,19.6Z" transform="translate(-5.202 -5.785)" fill="#fff"/>
</svg>
